<svg width="512" height="512" viewBox="0 0 512 512" fill="none" xmlns="http://www.w3.org/2000/svg">
<circle cx="256" cy="256" r="256" fill="url(#paint0_linear_1542_1386)"/>
<path fill-rule="evenodd" clip-rule="evenodd" d="M152.251 136.943C155.518 136.007 158.946 135.767 162.312 136.237L162.519 136.255C188.093 140.49 212.142 151.208 232.353 167.378V336.629C207.116 319.139 184.282 311.049 156.054 306.366C150.228 305.658 144.865 302.844 140.984 298.458C137.103 294.073 134.974 288.422 135 282.576V159.838C135.017 154.683 136.706 149.671 139.814 145.549C142.923 141.427 147.285 138.414 152.251 136.96V136.943ZM253.978 237.389V167.378C274.189 151.208 298.238 140.49 323.812 136.255L324.02 136.237C327.415 135.757 330.875 136.008 334.165 136.974C337.455 137.941 340.497 139.6 343.087 141.84C345.677 144.079 347.753 146.847 349.176 149.955C350.598 153.063 351.333 156.44 351.331 159.855V282.576C351.344 286.177 350.541 289.734 348.982 292.983C347.423 296.232 345.147 299.089 342.325 301.34C338.905 300.704 335.433 300.381 331.954 300.376H318.989V274.554C318.993 266.979 316.99 259.538 313.181 252.981C309.372 246.424 303.893 240.985 297.297 237.213C290.701 233.44 283.222 231.468 275.616 231.496C268.01 231.524 260.546 233.568 253.978 237.389ZM254.151 364.929V274.554C254.151 268.847 256.427 263.374 260.479 259.339C264.531 255.303 270.027 253.036 275.758 253.036C281.488 253.036 286.984 255.303 291.036 259.339C295.089 263.374 297.365 268.847 297.365 274.554V321.894H331.936C341.105 321.894 349.899 325.521 356.382 331.977C362.865 338.434 366.508 347.191 366.508 356.322V364.929C366.508 367.212 365.597 369.401 363.976 371.015C362.356 372.63 360.157 373.536 357.865 373.536H262.794C260.501 373.536 258.303 372.63 256.682 371.015C255.061 369.401 254.151 367.212 254.151 364.929Z" fill="white"/>
<defs>
<linearGradient id="paint0_linear_1542_1386" x1="61" y1="22.5" x2="431.5" y2="512" gradientUnits="userSpaceOnUse">
<stop stop-color="#7287FD"/>
<stop offset="1" stop-color="#314AD5"/>
</linearGradient>
</defs>
</svg>
